<?xml version="1.0" encoding="utf-8"?>
<!-- Generator: Adobe Illustrator 16.0.0, SVG Export Plug-In . SVG Version: 6.00 Build 0)  -->
<!DOCTYPE svg PUBLIC "-//W3C//DTD SVG 1.1//EN" "http://www.w3.org/Graphics/SVG/1.1/DTD/svg11.dtd">
<svg version="1.1" id="Layer_1" xmlns="http://www.w3.org/2000/svg" xmlns:xlink="http://www.w3.org/1999/xlink" x="0px" y="0px"
	 width="182.992px" height="203.99px" viewBox="0 0 182.992 203.99" enable-background="new 0 0 182.992 203.99"
	 xml:space="preserve">
<g>
	<polygon fill="#FFFFFF" points="57.447,67.659 47.505,76.09 62.394,100.368 69.976,112.969 106.513,105.81 103.984,85.047 
		106.267,60.653 90.287,60.418 69.976,62.394 	"/>
	<g>
		<path fill="#B71915" d="M132.257,107.403c1.803,7.264-14.09,25.842-38.844,31.871c-24.78,5.93-47.398-3.336-49.112-10.623
			c-1.229-5.066,6.66-9.215,19.256-13.519c1.168,7.832,0.268,8.976,0.268,8.976c1.053,6.289,13.301,10.428,27.615,7.006
			c14.301-3.488,23.307-12.768,21.373-18.838c0,0-1.322-0.611-3.859-8.107C122.126,102.247,131.039,102.336,132.257,107.403"/>
		<path fill="#D5221E" d="M132.076,106.644c1.687,6.787-14.354,24.793-39.102,30.813c-24.768,5.938-47.256-2.754-48.855-9.565
			c-1.148-4.736,6.807-8.611,19.443-12.74c1.047,7.326,0.133,8.408,0.133,8.408c0.955,5.877,13.125,9.692,27.436,6.268
			c14.297-3.486,23.385-12.434,21.549-18.102c0,0-1.308-0.547-3.722-7.541C122.087,102.086,130.933,101.905,132.076,106.644"/>
		<path fill="#30559F" d="M112.679,111.726c0,0-1.309-0.547-3.721-7.541c-0.861-2.499-1.865-5.816-2.996-10.222
			c0.012,3.223-8.779,9.022-20.625,11.879c-11.846,2.865-22.312,1.722-23.775-1.153c1.004,4.436,1.627,7.848,2,10.461
			c1.047,7.328,0.133,8.41,0.133,8.41c0.955,5.879,13.125,9.69,27.436,6.268C105.427,126.338,114.515,117.394,112.679,111.726"/>
		<path fill="#D5221E" d="M49.736,73.889c-3.709-0.596-6.061-1.725-6.457-3.383c-0.072-0.305-0.078-0.621-0.02-0.945
			c-0.199,0.225-0.674,1.041,0.033,3.404c0.842,2.807,14.021,13.725,18.092,30.947c0.025,0.103,0.049,0.207,0.072,0.312
			c0.035,0.153,0.072,0.312,0.105,0.465c0.643,1.264,2.986,2.172,6.414,2.582c-1.105-3.775-3.258-10.029-7.055-17.043
			C57.376,83.676,52.64,77.442,49.736,73.889"/>
		<path fill="#D5221E" d="M60.394,74.239c2.859,4.434,6.668,10.914,8.82,15.775c2.451,5.537,4.465,13.236,4.953,17.445
			c2.521-0.108,5.287-0.422,8.18-0.974c-2.055-7.597-7.311-26.079-11.682-33.466C67.025,73.663,63.56,74.057,60.394,74.239"/>
		<path fill="#D5221E" d="M94.777,65.569c-2.852,1.35-6.119,2.658-9.691,3.838c0.439,4.834,1.145,12.357,1.631,16.535
			c0.596,5.096,2.062,13.791,3.262,18.586c2.812-0.912,5.364-1.975,7.567-3.086c-1.459-4.107-2.823-11.133-3.289-17.066
			C93.824,78.848,93.906,70.428,94.777,65.569"/>
		<path fill="#D5221E" d="M106.367,54.434c-0.062-0.039-0.115-0.066-0.156-0.08c0.037,0.049,0.066,0.093,0.099,0.143
			c0.147,0.221,0.256,0.456,0.317,0.707c0.256,1.052-0.289,2.266-1.481,3.58c-1.349,5.217-3.422,14.124-3.772,18.727
			c-0.431,5.547,0.43,15.201,1.895,20.314c1.727-1.436,2.701-2.781,2.697-3.861c-0.039-0.15-0.08-0.309-0.119-0.463
			c-0.025-0.102-0.051-0.205-0.076-0.309c-4.24-17.182,2.5-32.916,1.969-35.795C107.351,55.328,106.72,54.655,106.367,54.434"/>
		<path fill="#D5221E" d="M106.626,55.203c1.065,4.355-12.008,12.206-29.542,16.481c-17.553,4.199-32.768,3.188-33.807-1.178
			c-0.072-0.305-0.08-0.621-0.018-0.945C44.074,65.196,56.727,58.75,73,54.785c16.291-3.904,30.492-3.941,33.208-0.432
			C106.412,54.615,106.55,54.898,106.626,55.203"/>
		<path fill="#D5221E" d="M106.21,54.354c0.201,0.262,0.34,0.543,0.416,0.85c1.065,4.355-12.008,12.206-29.542,16.481
			c-17.553,4.199-32.768,3.188-33.807-1.178c-0.072-0.305-0.08-0.621-0.02-0.945"/>
		<path fill="#B71915" d="M106.21,54.354c0.553,0.543,0.748,1.469,0.555,2.285c-0.197,0.817-0.619,1.541-1.082,2.199
			c-0.957,1.301-2.121,2.382-3.324,3.377c-2.549,1.766-5.244,3.196-7.996,4.469c-5.506,2.527-11.242,4.408-17.078,5.83
			c-5.842,1.398-11.801,2.344-17.855,2.609c-3.027,0.117-6.078,0.09-9.152-0.334c-1.525-0.348-3.051-0.783-4.494-1.5
			c-0.713-0.369-1.418-0.814-1.969-1.445c-0.545-0.639-0.795-1.549-0.555-2.283c-0.086,0.785,0.305,1.512,0.859,1.963
			c0.561,0.461,1.244,0.756,1.938,0.979c1.406,0.428,2.879,0.586,4.35,0.658c2.926,0.395,5.912,0.418,8.877,0.293
			c5.939-0.275,11.83-1.215,17.602-2.6c5.768-1.406,11.438-3.256,16.848-5.723c2.693-1.246,5.344-2.619,7.762-4.317
			c1.269-0.746,2.498-1.568,3.558-2.582c0.518-0.51,0.995-1.076,1.284-1.743C106.625,55.839,106.644,55.018,106.21,54.354"/>
		<path fill="#FFFFFF" d="M101.191,119.894c-1.549-9.97-8.312-8.074-8.312-8.074c-3.457,0.836-4.559,3.957-5.312,4.867
			c-1.086-0.465-3.42-2.759-6.854-1.929c0,0-6.979,1.425-3.805,11c3.172,9.578-4.154,9.771-4.154,9.771s14.023-1.838,16.098-13.522
			c7.178,9.451,20.496,4.685,20.496,4.685S102.742,129.862,101.191,119.894"/>
		<path fill="#FFFFFF" d="M82.65,111.624c0.238,0.578,0.143,1.168-0.213,1.314c-0.355,0.145-0.838-0.207-1.076-0.785
			c-0.238-0.578-0.143-1.164,0.215-1.312C81.931,110.694,82.412,111.045,82.65,111.624"/>
		<path fill="#FFFFFF" d="M75.162,108.37c0.113-0.721,0.523-1.41,1.16-1.879c0.635-0.477,1.457-0.701,2.223-0.68
			c0.771,0.008,1.492,0.227,2.137,0.537c0.645,0.315,1.223,0.733,1.699,1.295c-0.734-0.027-1.398-0.144-2.035-0.236
			c-0.637-0.096-1.248-0.164-1.824-0.176c-0.578-0.008-1.119,0.043-1.662,0.227C76.314,107.638,75.777,107.959,75.162,108.37"/>
		<path fill="#FFFFFF" d="M96.517,106.599c-0.686-0.009-1.361,0.026-1.969,0.225c-0.609,0.176-1.137,0.498-1.578,0.916
			c-0.453,0.418-0.729,0.998-1.193,1.441c-0.463,0.454-0.945,0.932-1.629,1.319l-0.123-0.069c0.012-0.789,0.26-1.472,0.619-2.107
			c0.355-0.643,1.004-1.092,1.646-1.494c0.647-0.4,1.399-0.656,2.141-0.707c0.744-0.025,1.455,0.105,2.111,0.338L96.517,106.599z"/>
	</g>
	<g>
		<circle fill="#FFC930" cx="107.765" cy="54.353" r="16.854"/>
		<circle fill="#D69100" cx="107.765" cy="54.353" r="13.307"/>
		<g>
			<path fill="#FFC930" d="M108.169,46.544c0.711,0,1.449,0.094,2.213,0.277c0.764,0.186,1.436,0.508,2.016,0.969l-1.896,2.312
				c-0.315-0.277-0.68-0.479-1.088-0.604s-0.822-0.201-1.244-0.227v3.141l1.896,0.555c0.871,0.264,1.564,0.693,2.086,1.293
				c0.52,0.6,0.779,1.361,0.779,2.283c0,0.699-0.125,1.311-0.375,1.838c-0.25,0.527-0.592,0.975-1.027,1.344
				c-0.436,0.369-0.941,0.658-1.521,0.869c-0.579,0.211-1.192,0.35-1.838,0.416v1.383h-1.305V61.01
				c-0.869,0-1.736-0.119-2.598-0.357c-0.863-0.236-1.625-0.65-2.283-1.244l2.096-2.352c0.342,0.422,0.756,0.721,1.244,0.898
				c0.486,0.178,1.002,0.287,1.541,0.326v-3.34l-1.441-0.434c-1.002-0.316-1.764-0.762-2.282-1.334
				c-0.521-0.574-0.781-1.361-0.781-2.361c0-0.619,0.125-1.18,0.377-1.68c0.25-0.502,0.582-0.93,0.998-1.285
				c0.414-0.355,0.896-0.645,1.44-0.869c0.547-0.224,1.109-0.369,1.689-0.436v-1.383h1.305V46.544L108.169,46.544z M106.865,49.331
				c-0.369,0.078-0.697,0.217-0.988,0.414c-0.289,0.199-0.434,0.508-0.434,0.93c0,0.303,0.059,0.541,0.178,0.711
				c0.119,0.172,0.256,0.307,0.414,0.406c0.158,0.098,0.316,0.168,0.475,0.207c0.16,0.039,0.277,0.072,0.355,0.098V49.331z
				 M108.169,58.243c0.197-0.039,0.397-0.096,0.604-0.168c0.203-0.072,0.385-0.168,0.543-0.287c0.158-0.117,0.287-0.26,0.385-0.424
				c0.1-0.164,0.148-0.359,0.148-0.584c0-0.209-0.037-0.389-0.109-0.533s-0.168-0.266-0.285-0.365
				c-0.119-0.1-0.258-0.184-0.416-0.258c-0.158-0.072-0.322-0.141-0.494-0.207l-0.375-0.139V58.243L108.169,58.243z"/>
		</g>
	</g>
	<g>
		<defs>
			<filter id="Adobe_OpacityMaskFilter" filterUnits="userSpaceOnUse" x="41.077" y="177.576" width="100.838" height="14.632">
				<feColorMatrix  type="matrix" values="1 0 0 0 0  0 1 0 0 0  0 0 1 0 0  0 0 0 1 0"/>
			</filter>
		</defs>
		<mask maskUnits="userSpaceOnUse" x="41.077" y="177.576" width="100.838" height="14.632" id="SVGID_2_">
			<g filter="url(#Adobe_OpacityMaskFilter)">
				
					<image overflow="visible" enable-background="new    " width="106" height="19" xlink:href="A689587388277676.jpg"  transform="matrix(1 0 0 1 38.4126 175.4062)">
				</image>
			</g>
		</mask>
		<g mask="url(#SVGID_2_)">
			<ellipse fill="#244276" cx="91.496" cy="184.892" rx="50.419" ry="7.316"/>
		</g>
	</g>
</g>
</svg>
