<?xml version="1.0" encoding="iso-8859-1"?>
<!-- Generator: Adobe Illustrator 16.0.0, SVG Export Plug-In . SVG Version: 6.00 Build 0)  -->
<!DOCTYPE svg PUBLIC "-//W3C//DTD SVG 1.1//EN" "http://www.w3.org/Graphics/SVG/1.1/DTD/svg11.dtd">
<svg version="1.1" id="Layer_1" xmlns="http://www.w3.org/2000/svg" xmlns:xlink="http://www.w3.org/1999/xlink" x="0px" y="0px"
	 width="182.991px" height="203.99px" viewBox="0 0 182.991 203.99" style="enable-background:new 0 0 182.991 203.99;"
	 xml:space="preserve">
<g>
	<path style="fill:#244276;" d="M98.139,80.583l-18.893-7.264l-21.666-8.33c-2.941-1.131-6.285,0.451-7.469,3.533L25.42,132.734
		c-1.184,3.082,0.24,6.498,3.18,7.627l62.225,23.928c2.941,1.129,6.285-0.453,7.469-3.533l24.689-64.215
		c1.188-3.082-0.234-6.496-3.176-7.629L98.139,80.583z"/>
	<path style="fill:#32579C;" d="M101.483,71.885L56.584,54.623c-2.033-0.781-4.318,0.232-5.102,2.267l-2.355,6.128
		c-0.781,2.035,0.234,4.318,2.268,5.1L96.293,85.38l26.006,10c2.035,0.781,4.318-0.232,5.1-2.266l2.357-6.129
		c0.781-2.035-0.232-4.318-2.266-5.102L101.483,71.885z"/>
	<polygon style="fill:#D1292E;" points="82.588,64.622 77.401,78.118 72.211,91.613 83.735,89.845 91.106,98.878 96.293,85.38 
		101.483,71.885 	"/>
	<path style="fill:#FFFFFF;" d="M59.961,79.157l-6.746-2.594c-0.746-0.285-1.117-1.123-0.832-1.869
		c0.289-0.744,1.125-1.117,1.869-0.83L61,76.458c0.744,0.287,1.117,1.125,0.83,1.869S60.708,79.444,59.961,79.157"/>
	<path style="fill:#FFFFFF;" d="M68.061,82.271l-2.701-1.038c-0.746-0.287-1.117-1.123-0.832-1.869
		c0.289-0.744,1.125-1.117,1.869-0.83l2.701,1.037c0.744,0.287,1.115,1.125,0.83,1.869C69.641,82.185,68.803,82.558,68.061,82.271"
		/>
	<path style="fill:#FFFFFF;" d="M84.211,157.097l-6.748-2.596c-0.746-0.287-1.117-1.123-0.832-1.867
		c0.289-0.746,1.125-1.117,1.871-0.832l6.746,2.594c0.746,0.285,1.117,1.125,0.83,1.869
		C85.792,157.011,84.956,157.382,84.211,157.097"/>
	<path style="fill:#FFFFFF;" d="M92.309,160.21l-2.701-1.039c-0.742-0.285-1.117-1.121-0.828-1.867
		c0.285-0.746,1.121-1.119,1.867-0.832l2.701,1.037c0.742,0.289,1.113,1.125,0.828,1.869
		C93.891,160.125,93.051,160.496,92.309,160.21"/>
	<polygon style="fill:#F4B044;" points="30.674,35.476 37.522,41.299 46.198,38.961 42.776,47.27 47.68,54.801 38.721,54.113 
		33.075,61.104 30.959,52.371 22.565,49.162 30.219,44.452 	"/>
	<polygon style="fill:#F4B044;" points="95.112,27.83 97.549,34.593 104.499,36.42 98.821,40.825 99.231,47.999 93.288,43.962 
		86.59,46.567 88.594,39.666 84.047,34.104 91.227,33.877 	"/>
	<polygon style="fill:#F4B044;" points="158.489,64.026 157.577,72.967 164.426,78.788 155.641,80.684 152.225,88.994 
		147.706,81.227 138.747,80.543 144.737,73.846 142.616,65.114 150.838,68.745 	"/>
	<polygon style="fill:#F4B044;" points="63.715,8.604 66.858,13.414 72.6,13.555 68.995,18.027 70.635,23.531 65.268,21.485 
		60.543,24.746 60.829,19.011 56.266,15.521 61.811,14.023 	"/>
	<polygon style="fill:#F4B044;" points="134.887,27.83 134.885,33.575 139.616,36.833 134.151,38.605 132.516,44.109 
		129.143,39.463 123.403,39.607 126.778,34.963 124.866,29.546 130.327,31.324 	"/>
	<g>
		<defs>
			<filter id="Adobe_OpacityMaskFilter" filterUnits="userSpaceOnUse" x="22.565" y="177.576" width="100.838" height="14.633">
				<feFlood  style="flood-color:white;flood-opacity:1" result="back"/>
				<feBlend  in="SourceGraphic" in2="back" mode="normal"/>
			</filter>
		</defs>
		<mask maskUnits="userSpaceOnUse" x="22.565" y="177.576" width="100.838" height="14.633" id="SVGID_1_">
			<g style="filter:url(#Adobe_OpacityMaskFilter);">
				
					<image style="overflow:visible;" width="106" height="19" xlink:href="A689587388277676.jpg"  transform="matrix(1 0 0 1 19.8999 175.4067)">
				</image>
			</g>
		</mask>
		<g style="mask:url(#SVGID_1_);">
			<ellipse style="fill:#244276;" cx="72.984" cy="184.892" rx="50.419" ry="7.316"/>
		</g>
	</g>
</g>
</svg>
